<?xml version="1.0" standalone="no"?>
<!DOCTYPE svg PUBLIC "-//W3C//DTD SVG 20010904//EN"
 "http://www.w3.org/TR/2001/REC-SVG-20010904/DTD/svg10.dtd">
<svg version="1.0" xmlns="http://www.w3.org/2000/svg"
 width="500.000000pt" height="500.000000pt" viewBox="0 0 500.000000 500.000000"
 preserveAspectRatio="xMidYMid meet">
<metadata>
Created by potrace 1.14, written by Peter Selinger 2001-2017
</metadata>
<g transform="translate(0.000000,500.000000) scale(0.100000,-0.100000)"
fill="#000000" stroke="none">
<path d="M2470 4053 c-14 -2 -32 -7 -40 -10 -8 -3 -25 -7 -38 -9 -32 -4 -112
-35 -112 -44 0 -10 -55 -12 -155 -5 -52 3 -181 -23 -241 -50 -70 -31 -147 -85
-193 -137 -33 -37 -81 -67 -115 -72 -8 -1 -23 -10 -34 -19 -10 -9 -24 -17 -30
-17 -7 0 -12 -5 -12 -12 0 -6 -3 -9 -6 -6 -3 3 -19 -7 -35 -23 -16 -16 -35
-29 -41 -29 -6 0 -8 -3 -5 -7 4 -3 -12 -24 -36 -46 -23 -22 -35 -36 -27 -32
16 9 -12 -28 -40 -53 -9 -8 -10 -11 -2 -7 11 6 11 3 0 -16 -7 -13 -17 -27 -21
-30 -5 -3 -10 -15 -12 -25 -2 -10 -4 -19 -5 -19 -1 0 -3 -7 -5 -15 -2 -8 -7
-26 -10 -40 -14 -59 -17 -80 -19 -161 -1 -47 -6 -91 -11 -99 -19 -31 -48 -59
-57 -54 -4 3 -8 -2 -8 -10 0 -9 -6 -16 -14 -16 -8 0 -18 -5 -22 -12 -5 -7 -2
-8 7 -3 8 4 -6 -12 -31 -36 -25 -24 -45 -48 -45 -52 0 -4 -6 -11 -13 -16 -8
-5 -14 -11 -13 -14 1 -17 -26 -66 -33 -60 -4 4 -4 0 0 -10 3 -9 2 -17 -3 -17
-5 0 -10 -6 -11 -12 -1 -16 -9 -53 -18 -80 -19 -60 -19 -176 0 -247 9 -30 13
-58 10 -62 -2 -4 -1 -9 3 -11 16 -6 56 -107 49 -123 -10 -28 -7 -210 4 -210 1
0 3 -11 5 -25 4 -31 9 -47 23 -83 7 -16 12 -33 12 -38 0 -5 5 -9 11 -9 5 0 8
-4 4 -9 -3 -5 2 -16 10 -24 8 -9 15 -20 15 -25 0 -5 22 -32 49 -61 26 -28 46
-51 44 -51 -2 0 5 -9 15 -20 10 -11 24 -38 30 -59 18 -59 88 -161 155 -224 69
-65 168 -118 267 -143 78 -20 108 -22 365 -24 l200 -3 88 -33 c49 -19 103 -40
120 -48 18 -8 68 -28 112 -45 44 -18 89 -36 100 -42 46 -22 154 -40 230 -38
73 2 186 26 196 42 3 5 8 7 10 6 9 -7 89 32 89 43 0 6 3 8 6 5 9 -8 46 19 113
82 30 28 63 51 73 51 10 0 18 5 18 10 0 6 9 10 20 10 11 0 20 5 20 10 0 6 7
10 16 10 8 0 21 6 29 13 32 29 79 62 88 59 5 -1 6 1 4 5 -7 11 19 33 29 25 4
-4 4 -1 0 6 -4 7 -1 15 8 18 9 3 16 13 16 20 0 8 7 17 15 20 8 4 15 12 15 20
0 8 5 14 10 14 6 0 10 7 10 15 0 8 5 15 11 15 5 0 7 5 4 10 -3 6 -1 10 4 10 6
0 10 3 10 8 -3 20 2 32 13 26 7 -4 8 -3 4 5 -4 6 -2 18 4 26 7 8 10 15 6 15
-3 0 -1 11 4 25 16 41 30 151 34 259 1 27 15 46 84 112 45 43 82 82 82 86 0
16 58 97 64 91 4 -4 4 1 0 11 -6 15 -4 17 6 11 8 -5 11 -4 7 2 -7 10 10 73 22
83 14 12 22 250 9 267 -5 7 -7 17 -4 22 4 5 1 13 -5 16 -5 4 -8 13 -5 21 3 8
1 14 -5 14 -6 0 -8 4 -4 9 3 5 1 12 -5 16 -6 4 -8 11 -5 16 4 5 1 9 -5 9 -7 0
-9 7 -6 16 3 8 2 12 -4 9 -12 -8 -12 -6 -16 135 -2 114 -4 133 -22 200 -13 49
-45 120 -54 120 -5 0 -8 5 -8 10 0 20 -53 90 -63 83 -5 -3 -7 -1 -4 4 11 18
-112 118 -185 151 -16 7 -38 17 -50 22 -13 6 -94 39 -181 74 -144 58 -162 68
-207 116 -28 29 -50 55 -50 57 0 2 -24 29 -54 59 -30 31 -54 58 -54 62 -1 3
-8 9 -17 12 -9 3 -17 10 -18 15 -1 6 -6 8 -12 7 -5 -2 -7 0 -3 4 11 10 -12 35
-25 27 -5 -3 -7 -1 -3 5 3 6 -8 21 -26 33 -18 13 -35 26 -38 30 -12 15 -88 57
-94 52 -3 -4 -6 -1 -6 6 0 8 -7 11 -15 7 -8 -3 -15 -2 -15 3 0 24 -214 56
-300 44z"/>
</g>
</svg>
